HIERARCHY
ROOT Hips
{
	OFFSET -0.179506 -22.333345 2.821913
	CHANNELS 6 Xposition Yposition Zposition Zrotation Yrotation Xrotation 
	JOINT LeftUpLeg
	{
		OFFSET 6.951974 -9.140623 -0.681533
		CHANNELS 3 Zrotation Yrotation Xrotation
		JOINT LeftLeg
		{
			OFFSET 3.427654 -37.519855 -0.449580
			CHANNELS 3 Zrotation Yrotation Xrotation
			JOINT LeftFoot
			{
				OFFSET -1.359570 -39.796059 -4.369333
				CHANNELS 3 Zrotation Yrotation Xrotation
				JOINT LeftToe
				{
					OFFSET 2.635814 -5.579078 11.928840
					CHANNELS 3 Zrotation Yrotation Xrotation
					End Site
					{
						OFFSET 0.000000 0.000000 0.000000
					}
				}
			}
		}
	}
	JOINT RightUpLeg
	{
		OFFSET -6.767048 -9.052170 -0.431982
		CHANNELS 3 Zrotation Yrotation Xrotation
		JOINT RightLeg
		{
			OFFSET -3.829005 -38.256897 -0.885003
			CHANNELS 3 Zrotation Yrotation Xrotation
			JOINT RightFoot
			{
				OFFSET 1.577377 -39.841461 -4.231180
				CHANNELS 3 Zrotation Yrotation Xrotation
				JOINT RightToe
				{
					OFFSET -2.537174 -4.814398 12.334795
					CHANNELS 3 Zrotation Yrotation Xrotation
					End Site
					{
						OFFSET 0.000000 0.000000 0.000000
					}
				}
			}
		}
	}
	JOINT Spine
	{
		OFFSET -0.253288 10.896323 -2.669631
		CHANNELS 3 Zrotation Yrotation Xrotation
		JOINT Spine1
		{
			OFFSET 0.548704 13.518043 0.109247
			CHANNELS 3 Zrotation Yrotation Xrotation
			JOINT Spine2
			{
				OFFSET 0.145701 5.292222 2.542457
				CHANNELS 3 Zrotation Yrotation Xrotation
				JOINT Neck
				{
					OFFSET -0.277840 21.387037 -4.285703
					CHANNELS 3 Zrotation Yrotation Xrotation
					JOINT Head
					{
						OFFSET 0.515184 6.496960 5.134897
						CHANNELS 3 Zrotation Yrotation Xrotation
						End Site
						{
							OFFSET 0.000000 0.000000 0.000000
						}
					}
				}
				JOINT LeftShoulder
				{
					OFFSET 7.884473 12.174932 -3.408961
					CHANNELS 3 Zrotation Yrotation Xrotation
					JOINT LeftArm
					{
						OFFSET 9.097692 3.046888 -0.886815
						CHANNELS 3 Zrotation Yrotation Xrotation
						JOINT LeftForeArm
						{
							OFFSET 25.961220 -1.277207 -2.745643
							CHANNELS 3 Zrotation Yrotation Xrotation
							JOINT LeftHand
							{
								OFFSET 24.923361 0.898606 -0.117091
								CHANNELS 3 Zrotation Yrotation Xrotation
								End Site
								{
									OFFSET 0.000000 0.000000 0.000000
								}
							}
						}
					}
				}
				JOINT RightShoulder
				{
					OFFSET -8.175920 11.883285 -3.861528
					CHANNELS 3 Zrotation Yrotation Xrotation
					JOINT RightArm
					{
						OFFSET -9.601238 3.255117 -0.914307
						CHANNELS 3 Zrotation Yrotation Xrotation
						JOINT RightForeArm
						{
							OFFSET -25.374195 -1.332924 -2.140099
							CHANNELS 3 Zrotation Yrotation Xrotation
							JOINT RightHand
							{
								OFFSET -25.529810 0.777228 -0.555919
								CHANNELS 3 Zrotation Yrotation Xrotation
								End Site
								{
									OFFSET 0.000000 0.000000 0.000000
								}
							}
						}
					}
				}
			}
		}
	}
}
MOTION
Frames: 8
Frame Time: 0.033333
-8.227268 112.175079 74.195625 178.917015 -17.781180 -177.089693 3.343885 2.330028 1.442614 -4.407853 -3.843104 25.314433 -6.002264 8.959899 -13.371471 5.279065 0.838351 -0.420383 4.816841 1.439876 -8.955384 2.222616 -2.712444 23.845972 1.965946 -4.256769 -12.511328 5.066713 -0.889856 1.668469 1.163408 -1.851835 -0.059304 2.394466 -12.295941 5.967727 -0.081952 -4.316452 -4.250588 -3.604929 -5.622689 -3.388663 7.154597 2.504079 -7.839426 -9.064516 -17.365804 -4.199411 -52.848123 -33.104867 14.855561 13.497045 -58.408455 8.085144 -5.702024 -14.371897 11.531300 9.610395 2.033320 3.667399 26.924157 -15.919079 18.044121 26.183097 42.729062 54.548816 18.596332 8.105023 14.161401 
-7.601938 111.898499 75.459869 178.673121 -19.342815 -177.058202 2.659403 3.548667 5.132915 -3.721899 -4.604177 19.000081 -6.345696 8.617137 -14.272554 5.298171 0.953186 -0.314370 4.446504 2.194970 -11.955227 2.242062 -3.572115 27.556989 1.756140 -4.722302 -13.874702 5.030513 -0.901320 1.645150 1.426268 -3.140107 -0.021294 2.474813 -13.379663 6.263905 -0.320023 -5.095876 -3.839398 -3.626709 -5.042611 -3.702088 7.062429 2.621197 -8.027625 -8.939067 -18.692317 -3.811111 -54.369031 -33.712476 16.278690 7.980609 -58.256815 14.964895 -6.681610 -14.580079 12.530955 9.247485 1.904631 3.090956 25.253162 -15.426696 18.033550 28.318747 44.365983 56.160646 18.242166 9.277921 14.139288 
-6.230721 111.612640 76.830132 178.109550 -21.155461 -177.270531 2.077140 4.623120 8.010493 -3.252908 -5.862176 13.889166 -6.614866 7.914288 -14.426057 5.342576 1.030387 -0.361654 4.231236 3.004739 -14.503185 2.224691 -4.371408 30.828093 1.540342 -5.221933 -14.816842 5.231453 -0.911871 1.612093 1.667579 -4.452101 0.211395 2.364844 -14.267325 6.539383 -0.570488 -5.676044 -3.544011 -3.731191 -4.800345 -3.684080 7.034361 2.755470 -8.224912 -8.632414 -19.961417 -3.731844 -55.501838 -34.760670 17.695418 2.903598 -57.842398 20.782289 -7.720868 -14.725942 13.713441 8.671121 1.431051 2.523851 23.324641 -15.379536 18.272722 31.085547 46.120107 57.942208 18.071815 10.260950 13.846788 
-5.053823 111.402557 77.849312 177.673497 -22.637368 -177.218309 2.044361 5.563019 9.589454 -3.022116 -6.610888 9.844866 -6.994012 7.532349 -14.227430 5.031903 1.090762 -0.335697 4.070292 3.095254 -15.870360 2.339887 -4.857694 31.710300 1.590791 -5.500356 -15.393763 5.411147 -0.973993 1.615297 1.896072 -5.400448 0.356903 2.276665 -14.850269 6.603955 -0.553688 -6.155655 -3.348926 -4.102305 -4.956855 -3.490229 7.280383 3.127056 -8.729232 -7.985100 -20.964202 -3.843254 -56.709962 -35.530473 19.103581 -1.771842 -57.401004 25.727556 -8.267806 -14.689742 13.980556 7.702192 0.898881 2.108474 21.919125 -15.692885 18.464144 33.659705 47.456751 59.317636 17.680796 10.958818 13.341689 
-3.888796 111.226593 79.201706 177.579298 -23.323336 -177.659946 2.231620 5.952995 9.963770 -2.896637 -7.168443 8.410804 -7.009275 7.235403 -14.795568 4.797704 1.077258 -0.377309 4.157236 3.261792 -17.100662 2.263771 -5.171231 32.660793 1.748510 -5.309650 -15.671829 5.646952 -1.027244 1.604235 2.077761 -6.057704 0.942315 2.297933 -15.000983 6.316550 -0.420290 -6.428717 -3.151783 -4.261547 -4.891165 -3.472071 7.506251 3.311080 -9.088983 -6.990613 -21.505731 -4.329448 -58.058150 -36.380115 20.662849 -5.544403 -57.799344 29.742977 -8.550164 -15.016538 13.515416 6.851786 0.447241 1.805181 20.991918 -16.196117 18.662389 35.550301 48.174018 60.008286 17.529593 11.560799 12.738724 
-3.390082 111.125961 79.791237 177.772666 -24.039686 -177.892198 2.883609 5.861558 9.075067 -3.270205 -7.128461 9.846140 -7.113355 6.450106 -15.117615 4.945333 1.015100 -0.552420 4.290025 3.501827 -17.674162 2.484698 -5.157801 32.981246 1.620439 -5.419013 -15.506034 5.855973 -0.996462 1.661603 1.977240 -6.335648 1.398071 2.381421 -15.285518 5.850460 -0.036718 -6.767354 -2.868567 -4.333571 -5.215241 -3.049325 7.847950 2.956163 -8.868843 -6.074336 -22.219479 -4.630667 -58.592254 -37.544355 21.716712 -10.507449 -58.296248 34.863175 -8.508788 -14.940063 13.800930 6.317810 0.136383 1.401386 19.936997 -16.361938 18.635903 36.660636 48.392543 60.362612 17.160395 11.787676 12.603298 
-3.172963 111.135147 80.318024 178.234116 -23.848703 -178.202684 3.699795 5.738608 7.418678 -3.858171 -6.676957 13.134443 -7.355063 5.622366 -14.797653 5.122441 0.985028 -0.802219 4.618698 3.681073 -17.724369 2.662315 -4.793874 32.469858 1.600201 -5.253176 -15.055812 6.145075 -0.962715 1.678962 1.904978 -6.321243 1.553813 2.613041 -15.369657 5.415655 0.320560 -7.034898 -2.757078 -4.302792 -5.581191 -2.792540 8.067451 2.897792 -8.429611 -5.352627 -22.339615 -4.851166 -58.768299 -38.242736 22.516508 -14.866018 -58.367779 39.381767 -7.522793 -15.154322 13.684676 5.840979 -0.076650 0.842385 18.864363 -15.986020 18.795142 38.234931 48.337690 61.141091 16.156764 12.231725 12.239678 
-3.208343 111.234711 80.413795 179.441073 -22.096091 -178.526970 4.721104 5.174150 4.851024 -4.723397 -6.136950 19.119717 -7.392788 6.090070 -14.406190 5.478116 0.807062 -1.068878 5.607932 4.054738 -17.312239 3.250186 -3.878923 31.177342 1.381288 -4.934692 -14.100213 6.354733 -0.838083 1.746894 1.925007 -5.971525 1.625351 3.114781 -15.305105 4.945920 0.692761 -6.927277 -2.634596 -4.137281 -5.495528 -2.580219 8.217310 3.472039 -7.717596 -4.553146 -22.319630 -5.079574 -58.253335 -38.334512 22.267989 -17.051681 -58.373962 41.791257 -6.408271 -15.188469 13.845219 5.717519 0.170524 0.349820 18.126099 -15.178010 18.653122 38.969630 49.457601 61.647319 15.239304 12.002763 12.284860 
